<svg width="479" height="91" viewBox="0 0 479 91" fill="none" xmlns="http://www.w3.org/2000/svg">
<path d="M127.548 49.036H145.044L142.308 70.96C140.964 71.944 139.572 72.796 138.132 73.516C136.692 74.212 135.18 74.788 133.596 75.244C132.036 75.7 130.38 76.036 128.628 76.252C126.9 76.468 125.052 76.576 123.084 76.576C119.844 76.576 116.88 75.988 114.192 74.812C111.528 73.612 109.236 71.968 107.316 69.88C105.42 67.792 103.944 65.32 102.888 62.464C101.856 59.608 101.34 56.512 101.34 53.176C101.34 50.272 101.664 47.512 102.312 44.896C102.984 42.256 103.932 39.82 105.156 37.588C106.38 35.356 107.844 33.34 109.548 31.54C111.276 29.74 113.184 28.204 115.272 26.932C117.384 25.66 119.652 24.688 122.076 24.016C124.5 23.32 127.044 22.972 129.708 22.972C131.94 22.972 133.956 23.176 135.756 23.584C137.58 23.992 139.212 24.544 140.652 25.24C142.092 25.912 143.376 26.704 144.504 27.616C145.632 28.504 146.628 29.428 147.492 30.388L143.676 35.104C143.052 35.944 142.308 36.46 141.444 36.652C140.58 36.82 139.692 36.616 138.78 36.04C137.94 35.464 137.148 34.972 136.404 34.564C135.66 34.132 134.904 33.784 134.136 33.52C133.368 33.232 132.552 33.028 131.688 32.908C130.848 32.764 129.9 32.692 128.844 32.692C126.564 32.692 124.476 33.184 122.58 34.168C120.684 35.128 119.052 36.496 117.684 38.272C116.316 40.024 115.248 42.136 114.48 44.608C113.736 47.08 113.364 49.804 113.364 52.78C113.364 55.084 113.64 57.16 114.192 59.008C114.768 60.832 115.572 62.38 116.604 63.652C117.636 64.9 118.872 65.86 120.312 66.532C121.752 67.204 123.348 67.54 125.1 67.54C126.54 67.54 127.836 67.42 128.988 67.18C130.14 66.916 131.244 66.556 132.3 66.1L133.308 57.532H128.844C128.124 57.532 127.572 57.352 127.188 56.992C126.828 56.608 126.684 56.116 126.756 55.516L127.548 49.036ZM169.006 48.316C170.686 48.316 172.114 48.064 173.29 47.56C174.466 47.032 175.414 46.336 176.134 45.472C176.878 44.608 177.406 43.6 177.718 42.448C178.054 41.296 178.222 40.084 178.222 38.812C178.222 37.828 178.078 36.94 177.79 36.148C177.502 35.332 177.046 34.648 176.422 34.096C175.822 33.52 175.054 33.076 174.118 32.764C173.206 32.452 172.126 32.296 170.878 32.296H166.702L164.722 48.316H169.006ZM171.958 23.548C175.174 23.548 177.91 23.896 180.166 24.592C182.446 25.264 184.306 26.2 185.746 27.4C187.186 28.6 188.23 30.028 188.878 31.684C189.55 33.316 189.886 35.092 189.886 37.012C189.886 38.932 189.622 40.768 189.094 42.52C188.59 44.248 187.846 45.844 186.862 47.308C185.878 48.748 184.678 50.032 183.262 51.16C181.846 52.264 180.226 53.176 178.402 53.896C179.122 54.304 179.782 54.808 180.382 55.408C180.982 55.984 181.486 56.692 181.894 57.532L189.526 76H178.942C177.958 76 177.13 75.808 176.458 75.424C175.81 75.016 175.342 74.464 175.054 73.768L169.366 58.252C169.078 57.604 168.718 57.136 168.286 56.848C167.854 56.56 167.206 56.416 166.342 56.416H163.714L161.302 76H149.638L156.046 23.548H171.958ZM205.673 76H193.865L200.273 23.548H212.081L205.673 76ZM255.632 27.076C255.56 27.556 255.404 28.012 255.164 28.444C254.948 28.876 254.696 29.296 254.408 29.704L227.912 66.964H250.088L248.936 76H211.495L211.927 72.544C211.999 72.064 212.155 71.608 212.395 71.176C212.611 70.744 212.863 70.324 213.151 69.916L239.684 32.584H218.696L219.848 23.548H256.136L255.632 27.076ZM296.413 27.076C296.341 27.556 296.185 28.012 295.945 28.444C295.729 28.876 295.477 29.296 295.189 29.704L268.693 66.964H290.869L289.717 76H252.277L252.709 72.544C252.781 72.064 252.937 71.608 253.177 71.176C253.393 70.744 253.645 70.324 253.933 69.916L280.465 32.584H259.477L260.629 23.548H296.917L296.413 27.076ZM327.33 66.64L326.178 76H296.802L303.282 23.548H315.018L309.69 66.64H327.33ZM351.77 55.876L349.25 76H337.514L339.998 56.02L326.498 23.548H336.938C337.946 23.548 338.726 23.788 339.278 24.268C339.854 24.724 340.274 25.336 340.538 26.104L345.578 41.98C346.298 44.044 346.838 45.988 347.198 47.812C347.654 46.9 348.158 45.976 348.71 45.04C349.262 44.08 349.85 43.06 350.474 41.98L359.402 26.104C359.81 25.48 360.35 24.904 361.022 24.376C361.694 23.824 362.522 23.548 363.506 23.548H373.226L351.77 55.876ZM391.431 67.18C392.871 67.18 394.083 66.976 395.067 66.568C396.051 66.136 396.843 65.548 397.443 64.804C398.067 64.036 398.511 63.148 398.775 62.14C399.063 61.132 399.207 60.028 399.207 58.828C399.207 58.036 399.099 57.316 398.883 56.668C398.691 56.02 398.343 55.48 397.839 55.048C397.359 54.592 396.711 54.244 395.895 54.004C395.103 53.74 394.119 53.608 392.943 53.608H385.383L383.727 67.18H391.431ZM387.975 32.296L386.319 45.832H391.935C393.255 45.832 394.443 45.7 395.499 45.436C396.555 45.172 397.455 44.728 398.199 44.104C398.967 43.456 399.555 42.604 399.963 41.548C400.371 40.492 400.575 39.184 400.575 37.624C400.575 35.68 400.059 34.312 399.027 33.52C398.019 32.704 396.447 32.296 394.311 32.296H387.975ZM395.391 23.548C398.439 23.548 401.043 23.836 403.203 24.412C405.387 24.988 407.163 25.816 408.531 26.896C409.923 27.952 410.931 29.236 411.555 30.748C412.203 32.236 412.527 33.892 412.527 35.716C412.527 37.156 412.335 38.548 411.951 39.892C411.591 41.212 411.003 42.436 410.187 43.564C409.395 44.692 408.363 45.712 407.091 46.624C405.843 47.536 404.319 48.316 402.519 48.964C405.351 49.732 407.439 50.932 408.783 52.564C410.127 54.172 410.799 56.212 410.799 58.684C410.799 61.108 410.331 63.376 409.395 65.488C408.483 67.576 407.151 69.4 405.399 70.96C403.647 72.52 401.511 73.756 398.991 74.668C396.495 75.556 393.663 76 390.495 76H370.911L377.391 23.548H395.391ZM427.719 76H415.911L422.319 23.548H434.127L427.719 76ZM477.39 32.836H464.07L458.742 76H447.078L452.334 32.836H438.942L440.094 23.548H478.614L477.39 32.836Z" fill="black"/>
<path d="M46.7945 49.7321C46.1115 50.3552 45.0662 50.3552 44.3833 49.7321L41.2549 46.8778C40.4183 46.1146 40.4872 44.7607 41.4619 44.1842C44.4849 42.3963 46.7212 42.3722 49.743 44.1824C50.7085 44.7607 50.77 46.1049 49.9387 46.8634L46.7945 49.7321Z" fill="black"/>
<path fill-rule="evenodd" clip-rule="evenodd" d="M24.2432 17.5286C24.7717 13.1343 25.7421 9.60911 29.6353 12.1365C32.0267 13.6469 34.042 16.309 34.5356 16.9901C42.7172 14.3938 49.1114 14.4396 58.2136 17.1495C58.2907 17.0384 60.5175 13.848 63.2275 12.1365C67.1206 9.60911 68.091 13.1343 68.6196 17.5286C69.1481 21.9229 64.3855 23.4955 63.6036 22.5445C63.5995 22.5396 63.5954 22.5346 63.5911 22.5294C67.3856 48.2605 78.8252 73.8486 78.8252 73.8486C73.6235 79.4803 70.4164 81.8976 64.4287 84.957C57.6488 87.9278 53.5799 88.9022 45.7666 89.2226C38.3319 89.0759 34.3328 88.196 27.46 85.4013C20.0788 81.6172 16.7974 79.0541 12.1748 73.8486C12.1748 73.8486 24.978 48.0869 29.0862 22.6837C27.9462 23.3049 23.7451 21.6698 24.2432 17.5286ZM45.55 62.1868C49.6099 62.1868 55.9141 57.0311 55.9141 50.6712C55.9141 44.3113 51.2739 39.1556 45.55 39.1556C39.8261 39.1556 35.186 44.3113 35.186 50.6712C35.186 57.0311 41.4902 62.1868 45.55 62.1868ZM37.4587 37.6468C37.7769 37.8857 38.2147 37.8857 38.5329 37.6468L41.5569 35.3758C42.244 34.8599 41.8791 33.7663 41.0199 33.7663H34.9717C34.1125 33.7663 33.7476 34.8599 34.4347 35.3758L37.4587 37.6468ZM53.6413 37.6468C53.3231 37.8857 52.8854 37.8857 52.5672 37.6468L49.5431 35.3758C48.856 34.8599 49.2209 33.7663 50.0802 33.7663H56.1283C56.9875 33.7663 57.3524 34.8599 56.6654 35.3758L53.6413 37.6468Z" fill="black"/>
<rect x="2.5" y="2.5" width="86" height="86" rx="43" stroke="black" stroke-width="5"/>
</svg>
