<svg id="Layer_1" data-name="Layer 1" xmlns="http://www.w3.org/2000/svg" viewBox="0 0 451.78 589.73"><path d="M336.37,140.39c.88-.07,1.92-.08,2.94-.07C338.29,140.31,337.25,140.32,336.37,140.39Z" transform="translate(-127.32 -34.89)"/><path d="M170,93.48c2.94,2.06,6.83,2.58,10,2.58.95,0,1.83,0,2.61-.11a147.76,147.76,0,0,0-1.15,22.49l.14-.09c12-8,37.52-22.38,74.32-28.61,13.74-2.33,28.25-1.67,45.05-.9,3.62.17,7.36.34,11.23.49,5.68.21,11,.32,17.19.44l5.15.1A68.72,68.72,0,0,0,332.21,82a10.5,10.5,0,0,0,1.47-4.38c.59-6.47-4.42-17.29-15.36-20.74a13.67,13.67,0,0,0-2.62-.56A77.29,77.29,0,0,0,291,40.17c-41.55-17.44-84.63,12.48-99,29.7-.21.25-.4.51-.59.77-3-1.44-10.07-4.2-16.73-2-5.15,1.72-7.72,7.39-8.41,12.11C165.47,86.34,166.93,91.33,170,93.48ZM304.58,71.54s0,0,0,0a8.74,8.74,0,0,1,7.17-3.87,9,9,0,0,1,2,.23,11.31,11.31,0,0,1,8.44,8.76,4.52,4.52,0,0,1-2.13,4.87,9.83,9.83,0,0,1-4.74,1.14,12.78,12.78,0,0,1-2.5-.25,11.74,11.74,0,0,1-1.84-.52,2.29,2.29,0,0,1-1.44-2.13s-.28-2.11-4.42-5.16A2.3,2.3,0,0,1,304.58,71.54ZM174.66,84.91c.39-1.34,2.12-2,5.16-2a26.8,26.8,0,0,1,4.47.43l-1.58,7.48c-.45,0-.94,0-1.45,0-4.81,0-6.22-1.19-6.6-1.7C173.89,88.11,174.33,86.05,174.66,84.91Z" transform="translate(-127.32 -34.89)"/><path d="M571.32,117.7a17.87,17.87,0,0,0-2.45.19c-.06-.17-.12-.35-.19-.52,2.37-2.84,5.25-7,5-10.24a4.6,4.6,0,0,0-1.87-3.47,6,6,0,0,0-3.67-1.15,12.64,12.64,0,0,0-4.83,1.19c1-2.39,1.4-4.74.55-6.41A4.28,4.28,0,0,0,559.75,95c-4.31,0-7.63,2.79-9.8,5.43a24,24,0,0,0-3.53-.43c.21-2.13.06-4.14-.86-5.44a3.75,3.75,0,0,0-3.14-1.6c-3.8,0-6.92,4.88-8.76,8.66-13.68,3.74-28.12,12.89-37.17,18.63-3.39,2.15-6.07,3.84-7.54,4.53-7.28,3.4-57.89,12.59-77.76,14.58-11.42,1.14-31.46,4.19-46.92,6-.64.7-1.11,1.3-1.48,1.77l-.22.28a9.34,9.34,0,0,1,.08,3.67,8,8,0,0,1-3.57,5.33c-4.75,3.1-11.84,1.73-19.95-3.86-.4-.19-2.78-.81-14.12.54l-.56.07a344.19,344.19,0,0,0-35.9,6l-3.6.76c4.22,4.67,4.41,19.62,3.44,29-.71,1.17-4,6-14.3,12.54-6,3.86-13.54,4.76-19.46,4.72a58.25,58.25,0,0,1-6.79-.45c13.32-4.13,19.9-8.76,19.55-13.78-.23-3.27-3.39-5.71-8.23-6.36A147.76,147.76,0,0,0,240.25,184c-.76,0-1.8,0-3,0C232.12,187.46,227,191.11,222,195a6.59,6.59,0,0,0,.22.72,6.81,6.81,0,0,0,.28.7,7.43,7.43,0,0,0,.79,1.35c3.45,4.76,12.1,7.28,17,8.36-.25,0-.53,0-.83,0a39.5,39.5,0,0,1-9.89-1.43c-4.31-1.07-6.76-3.22-8.15-5.37a7.85,7.85,0,0,1-.44-.73,11.67,11.67,0,0,1-.89-2.09c-10.27,8.13-19.7,17.05-26.43,26.18A2.29,2.29,0,1,1,189.9,220c23.56-32,79.47-61.62,92.74-64.27,1.52-.31,3.15-.65,4.95-1a349.79,349.79,0,0,1,36.33-6l.55-.07c12.68-1.51,15.79-.77,17.27.25,6.38,4.39,11.79,5.77,14.84,3.79a3.9,3.9,0,0,0,1.41-4.51,2.27,2.27,0,0,1-.29-1.76,1.75,1.75,0,0,1,.11-.24l-.17,0c.09-.07.18-.16.27-.24a2.23,2.23,0,0,1,.77-.92,7.7,7.7,0,0,0,.5-.63l.42-.51a19.62,19.62,0,0,1,1.74-2.39c1,.1,2.15.17,3.31.17,3.88,0,6.54-.77,8.13-2.35a3.92,3.92,0,0,0,1.13-3.52c-.31-1.7-1.81-3.31-3.62-4.68,3.33-.56,6.77-1.56,8.28-3.34a3.94,3.94,0,0,0,1-3.11c-.32-2.53-2.47-4.17-5-5.24,2.89-1.35,5.38-3.06,5.92-5.11a3.74,3.74,0,0,0-1.1-3.73,10.14,10.14,0,0,0-6.13-2.64,7.43,7.43,0,0,0,3-3.8,4,4,0,0,0-.85-3.61c-1.72-2.06-4.44-3.11-8.08-3.11a22.15,22.15,0,0,0-3.43.28,17.78,17.78,0,0,0-8.44-2.57c-6.49-.45-12.95-.54-19.25-.59l-.22,0H336l-6.65-.14c-6.21-.12-11.56-.22-17.28-.44-3.89-.15-7.64-.32-11.27-.48-16.54-.76-30.82-1.41-44.08.83-35.95,6.09-60.87,20.1-72.53,27.9l-2.47,1.64s0,.08,0,.11c-27.27,17.84-48.07,41.07-52.89,63.16-6.61,30.32,10,61.2,18.92,77.78,2.84,5.29,5.3,9.86,5.51,11.67l.15,1.27c4.12,34.32,10.58,74.33,7,101.37-.81,6.13-1.7,12.62-2.63,19.36-5.53,40.05-10.85,66.31-6.12,99.4,6.12,42.82,29.48,84.4,35.09,94.12-2.91,1.18-7.14,3.54-8.46,7.52a8,8,0,0,0-.4,2.2c-1.51,1.14-2.62,2.4-2.81,3.74a3.34,3.34,0,0,0,1.28,3.1,5.38,5.38,0,0,0,3.52.95c.4,0,.83,0,1.26-.07l.17.19a4.82,4.82,0,0,0-.61,1.43,3.79,3.79,0,0,0,.75,3.21,4.33,4.33,0,0,0,3.58,1.52,13.36,13.36,0,0,0,4.17-.87c.83.36,1.7.68,2.59,1a3.27,3.27,0,0,0-.27,2.8,3.21,3.21,0,0,0,3.3,2,19,19,0,0,0,8.72-2.23l1,.12a4,4,0,0,0,.08,1.42,3.76,3.76,0,0,0,2.93,2.66,5.18,5.18,0,0,0,1.34.16h0c2.66,0,6.33-1.79,9.45-3.67a70.59,70.59,0,0,0,8.91-.71c1-.16,2.16-.32,3.38-.49,10.73-1.52,28.71-4.06,27.6-16.25A42.87,42.87,0,0,0,255.59,591c-2-5.68-3.63-19-3-30.37.76-13,4-25.17,9.17-28.62,5-3.34,44.16-1,51.23,4.15,6.88,5,9.17,13.76,10.7,32.88.12,1.49-.19,12.57-.45,21.39-.16,5.54-1.84,12.63,3.72,18.15,4.82,4.79,16,10,32.84,11.56,3.36,2.14,7.74,4.49,10.78,4.49a5.18,5.18,0,0,0,1.34-.16,3.76,3.76,0,0,0,2.93-2.66,3.71,3.71,0,0,0,.09-1.33l1.23-.07a19,19,0,0,0,8.45,2.09,3.21,3.21,0,0,0,3.3-2,3,3,0,0,0,.08-1.9c.78-.21,1.54-.44,2.25-.69a21,21,0,0,0,4.92.89,3.46,3.46,0,0,0,3.11-1.39c.35-.53,1.1-1.68-.11-4,.25-.25.5-.51.73-.77a7.73,7.73,0,0,0,1.21.12,4,4,0,0,0,1.85-.4,3.34,3.34,0,0,0,1.91-2.75,6.06,6.06,0,0,0-1.79-4.07A12.68,12.68,0,0,0,402,602c-.84-4.2-5.1-6.63-8.19-7.87,9.93-14.95,31.28-66.72,37.26-104,6.81-42.43-17-96.73-20.68-103-2.93-5-13-45.17-24.67-104-2.3-11.6-12.24-45.24,10.37-54.81,8.8-3.72,31.06-11.66,54.7-19.89,29.19-10.17,59.38-20.69,68.77-25.53,18.46-9.51,40.51-22,47.34-34a.61.61,0,0,1,.07-.14c6.33-4,12.44-9.14,10.74-13.11-.57-1.34-2-2.9-5.25-3.22,2.87-1.93,5.86-4.55,6.53-7.41a5.32,5.32,0,0,0-1.09-4.68C576.88,119.15,575,117.7,571.32,117.7ZM323.8,119.41c3.95-6.39,9.89-9.82,16.85-9.59,6.7.23,11.71,3.1,14.1,8.08,2.81,5.87,1.25,13.14-1.64,17-3.77,5-7.62,5.45-11.24,5.45l-1.54,0h-1c-1,0-2.06,0-2.94.07a29.57,29.57,0,0,1-6.88.93c-5.54,0-7.85-2.3-8.81-4.22C318.75,133.25,320.15,125.31,323.8,119.41Zm-19,62.82c.85-.13,19.43-3.19,26.48-22.23a2.29,2.29,0,0,1,4.3,1.59c-8,21.67-29.21,25-30.1,25.18l-.34,0a2.29,2.29,0,0,1-.34-4.56Zm-45.37,97.35h-.23c-7.17-.68-30.11-22.44-42.84-35.93-9.95-11.25-17.91-23.6-16.67-25.92a1.17,1.17,0,0,1,.42-.05c3.5,0,12.35,5.29,20.92,10.41,13.6,8.12,29,17.33,40,17.33,9.93,0,30.57-8.72,50.53-17.14l2.46-1.05,4.91-2.06,3.54-1.47.13-.05,3.45-1.41h0l2.05-.82.61-.24,1.49-.59.56-.21,1.89-.72.35-.14,1.48-.54.53-.19,1.39-.49.32-.11,1.56-.52.37-.11,1.11-.34.39-.11,1.19-.32.09,0,.92-.2c.39-.08.75-.14,1.07-.18C334.84,243.64,271,279.59,259.46,279.58Zm296.77-136.7c-3,6.4-10.7,10.71-19.26,10.71a26.61,26.61,0,0,1-6.32-.78c-.43-.14-7.76-2.47-11-8.95-1.9-3.8-2-8.14-.3-12.91,4.17-11.66,13.78-15.8,20.75-15.8a12.61,12.61,0,0,1,7.19,1.95C553.23,121.25,559.86,135,556.23,142.88Z" transform="translate(-127.32 -34.89)"/></svg>